<svg xmlns="http://www.w3.org/2000/svg" viewBox="0 0 107.43 100.47"><defs><style>.cls-1{isolation:isolate;}.cls-2{fill:#e3e3e3;}.cls-3{fill:#7ddf9b;}.cls-4{opacity:0.2;mix-blend-mode:multiply;}.cls-5{fill:#feffff;}.cls-6{fill:#3f4d66;}.cls-7{fill:#ff5642;}</style></defs><title>Asset 14</title><g class="cls-1"><g id="Layer_2" data-name="Layer 2"><g id="Layer_1-2" data-name="Layer 1"><rect class="cls-2" width="74.17" height="100.47"/><rect class="cls-3" width="73.97" height="14.23"/><g class="cls-4"><rect class="cls-2" x="36.49" width="37.68" height="100.47"/></g><g class="cls-4"><rect class="cls-3" x="36.49" width="37.47" height="14.23"/></g><path class="cls-5" d="M6.38,8.63l-.29,0a1.5,1.5,0,0,1-.28-.09,1.3,1.3,0,0,1-.26-.14,1.3,1.3,0,0,1-.23-.18,1.51,1.51,0,0,1,0-2.13,2,2,0,0,1,.23-.18,1.29,1.29,0,0,1,.26-.14,1.51,1.51,0,0,1,.28-.09,1.57,1.57,0,0,1,1.36.41,1.55,1.55,0,0,1,.43,1.06,1.58,1.58,0,0,1-.43,1.07A1.53,1.53,0,0,1,6.38,8.63Z"/><path class="cls-5" d="M16.65,7.13a1.51,1.51,0,0,1,1.5-1.5h0a1.5,1.5,0,0,1,1.5,1.5h0a1.5,1.5,0,0,1-1.5,1.49h0A1.5,1.5,0,0,1,16.65,7.13Z"/><path class="cls-5" d="M29.92,8.63a1.51,1.51,0,0,1-1.06-2.57,1.56,1.56,0,0,1,2.12,0,1.51,1.51,0,0,1,0,2.13A1.48,1.48,0,0,1,29.92,8.63Z"/><path class="cls-6" d="M27.87,78.73a1.5,1.5,0,0,1-1.5-1.5V69.62a1.5,1.5,0,1,1,3,0v7.61A1.5,1.5,0,0,1,27.87,78.73Z"/><path class="cls-6" d="M43,74.92a1.5,1.5,0,0,1-1.5-1.5V62.82a1.5,1.5,0,1,1,3,0v10.6A1.5,1.5,0,0,1,43,74.92Z"/><path class="cls-6" d="M58.31,68.7a1.5,1.5,0,0,1-1.5-1.5V52.25a1.5,1.5,0,1,1,3,0V67.19A1.5,1.5,0,0,1,58.31,68.7Z"/><path class="cls-6" d="M90,53.81a1.5,1.5,0,0,1-1.5-1.5V38.87a1.5,1.5,0,1,1,3,0V52.3A1.5,1.5,0,0,1,90,53.81Z"/><path class="cls-6" d="M72.47,61.22a1.5,1.5,0,0,1-1.5-1.5V45.54a1.5,1.5,0,1,1,3,0V59.72A1.5,1.5,0,0,1,72.47,61.22Z"/><path class="cls-6" d="M19.29,38.75a1.5,1.5,0,0,1-1.06-.44L13.91,34,9.59,38.31a1.5,1.5,0,0,1-2.12-2.12l5.38-5.38a1.5,1.5,0,0,1,2.12,0l5.38,5.38a1.5,1.5,0,0,1-1.06,2.56Z"/><path class="cls-6" d="M105.93,40.69a1.5,1.5,0,0,1-1.06-.44l-4.32-4.32-4.32,4.32a1.5,1.5,0,0,1-2.12-2.12l5.38-5.38a1.5,1.5,0,0,1,2.12,0L107,38.12a1.5,1.5,0,0,1-1.06,2.56Z"/><path class="cls-7" d="M27.87,75.44a5,5,0,1,0,5,5A5,5,0,0,0,27.87,75.44Z"/><g class="cls-4"><path class="cls-7" d="M27.87,75.44v10a5,5,0,1,0,0-10Z"/></g><path class="cls-7" d="M43,70.46a5,5,0,1,0,5,5A5,5,0,0,0,43,70.46Z"/><g class="cls-4"><path class="cls-7" d="M43,70.46v10a5,5,0,1,0,0-10Z"/></g><path class="cls-7" d="M58.31,64.64a5,5,0,1,0,5,5A5,5,0,0,0,58.31,64.64Z"/><g class="cls-4"><path class="cls-7" d="M58.31,64.64v10a5,5,0,0,0,0-10Z"/></g><path class="cls-7" d="M72.47,57.23a5,5,0,1,0,5,5A5,5,0,0,0,72.47,57.23Z"/><g class="cls-4"><path class="cls-7" d="M72.47,57.23v10a5,5,0,0,0,0-10Z"/></g><path class="cls-7" d="M90,50.23a5,5,0,1,0,5,5A5,5,0,0,0,90,50.23Z"/><g class="cls-4"><path class="cls-7" d="M90,50.23v10a5,5,0,0,0,0-10Z"/></g><path class="cls-7" d="M27.88,71a1.5,1.5,0,0,1-1.11-.49L12.8,55.2a1.5,1.5,0,0,1,2.22-2L26.59,65.83l1.3-21A1.5,1.5,0,0,1,30.58,44L42.14,59l2.42-18.59a1.5,1.5,0,0,1,2.53-.89L57.66,49.7,61.27,36a1.5,1.5,0,0,1,2.49-.7l7.74,7.43,6-23.25a1.5,1.5,0,0,1,2.77-.36l8.58,15.41L90.36,2.62a1.5,1.5,0,1,1,3,.14L91.59,39.89a1.5,1.5,0,0,1-2.81.66L79.47,23.82,73.77,45.92a1.5,1.5,0,0,1-2.49.71l-7.75-7.44L59.91,52.94a1.5,1.5,0,0,1-2.49.7L47.16,43.78,44.66,63a1.5,1.5,0,0,1-2.68.72L30.64,49,29.37,69.55A1.5,1.5,0,0,1,27.88,71Z"/><path class="cls-7" d="M97.25,8.41A1.5,1.5,0,0,1,96.19,8L91.87,3.65,87.54,8a1.5,1.5,0,0,1-2.12-2.12L90.8.47A1.5,1.5,0,0,1,91.87,0h0a1.5,1.5,0,0,1,1.06.44l5.38,5.38a1.5,1.5,0,0,1-1.06,2.56Z"/><path class="cls-6" d="M13.91,55.68a1.5,1.5,0,0,1-1.5-1.5V33.54a1.5,1.5,0,1,1,3,0V54.18A1.5,1.5,0,0,1,13.91,55.68Z"/><path class="cls-6" d="M100.56,91.74H13.91a1.5,1.5,0,0,1-1.5-1.5V54.18a1.5,1.5,0,1,1,3,0V88.74H99.06V36.08a1.5,1.5,0,1,1,3,0V90.24A1.5,1.5,0,0,1,100.56,91.74Z"/></g></g></g></svg>