<svg xmlns="http://www.w3.org/2000/svg" viewBox="0 0 105.15 102.05"><defs><style>.cls-1{isolation:isolate;}.cls-2{fill:#7ddf9b;}.cls-3{opacity:0.2;mix-blend-mode:multiply;}.cls-4{fill:#feffff;}.cls-5{fill:#3f4d66;}.cls-6{fill:#40cde0;}</style></defs><title>Asset 10</title><g class="cls-1"><g id="Layer_2" data-name="Layer 2"><g id="Layer_1-2" data-name="Layer 1"><path class="cls-2" d="M92.9,40.37A16.32,16.32,0,0,0,74.49,19.15c0-.09,0-.18,0-.27a18.87,18.87,0,0,0-36.58-6.53,18.86,18.86,0,0,0-23.82,28H12.28a12.28,12.28,0,0,0,0,24.56H92.87a12.28,12.28,0,0,0,0-24.55Z"/><g class="cls-3"><path class="cls-2" d="M92.9,40.37A16.32,16.32,0,0,0,74.49,19.15c0-.09,0-.18,0-.27A18.87,18.87,0,0,0,56.54,0V64.92H92.87a12.28,12.28,0,0,0,0-24.55Z"/></g><circle class="cls-4" cx="27.12" cy="28.55" r="6.61"/><path class="cls-5" d="M72.94,58.08H35.2a1.67,1.67,0,0,1-1.67-1.67V39A6.47,6.47,0,0,1,40,32.48H68.15A6.47,6.47,0,0,1,74.61,39V56.41A1.67,1.67,0,0,1,72.94,58.08ZM36.87,54.74H71.27V39a3.13,3.13,0,0,0-3.13-3.13H40A3.13,3.13,0,0,0,36.87,39Z"/><path class="cls-6" d="M76.84,53.06H31.55A7.59,7.59,0,0,0,24,60.66v33.8a7.59,7.59,0,0,0,7.59,7.59H76.84a7.59,7.59,0,0,0,7.59-7.59V60.66A7.59,7.59,0,0,0,76.84,53.06Z"/><g class="cls-3"><path class="cls-6" d="M76.71,53.06H54.2v49H76.71a7.59,7.59,0,0,0,7.59-7.59V60.66A7.59,7.59,0,0,0,76.71,53.06Z"/></g><path class="cls-5" d="M57.11,77.85a6.49,6.49,0,1,0-5.61,0l-.4,1.31L47.89,89.6H60.72L57.51,79.17Z"/><g class="cls-3"><path class="cls-5" d="M57.07,77.8a6.49,6.49,0,0,0-2.81-12.34v24.1h6.42L57.48,79.11Z"/></g></g></g></g></svg>