<svg xmlns="http://www.w3.org/2000/svg" viewBox="0 0 104.69 100.52"><defs><style>.cls-1{isolation:isolate;}.cls-2{fill:#3f4d66;}.cls-3{fill:#ff5642;}.cls-4{opacity:0.2;mix-blend-mode:multiply;}.cls-5{fill:#e3e3e3;}.cls-6{opacity:0.3;mix-blend-mode:screen;}.cls-7{fill:#40cde0;}</style></defs><title>Asset 9</title><g class="cls-1"><g id="Layer_2" data-name="Layer 2"><g id="Layer_1-2" data-name="Layer 1"><path class="cls-2" d="M81.39,95.55H31.08a1.57,1.57,0,0,1,0-3.13H79.83V70.35a1.57,1.57,0,0,1,3.13,0V94A1.57,1.57,0,0,1,81.39,95.55Z"/><path class="cls-2" d="M82.37,39.55A1.57,1.57,0,0,1,80.8,38V9.75H52.51a1.57,1.57,0,0,1,0-3.13H82.37a1.57,1.57,0,0,1,1.57,1.57V38A1.57,1.57,0,0,1,82.37,39.55Z"/><path class="cls-2" d="M26.95,89.59a2,2,0,0,1-2-2l-.11-14.09a2,2,0,1,1,4,0l.11,14.09a2,2,0,0,1-2,2Z"/><path class="cls-3" d="M26.89,84.56a8,8,0,1,0,8,8A8,8,0,0,0,26.89,84.56Z"/><g class="cls-4"><path class="cls-3" d="M26.89,84.56v16a8,8,0,1,0,0-16Z"/></g><path class="cls-3" d="M53,7c-.26-3.88-12-7-26.51-7S.27,3.13,0,7c0,0,0,.09,0,.13,0,3.94,11.87,7.14,26.52,7.14S53,11.09,53,7.14C53,7.1,53,7.06,53,7Z"/><g class="cls-4"><path class="cls-3" d="M50.76,7.05c-.23-2.68-10.91-4.83-24.05-4.83S2.89,4.38,2.66,7.05c0,0,0,.06,0,.09,0,2.72,10.77,4.92,24.06,4.92s24.06-2.2,24.06-4.92C50.77,7.11,50.77,7.08,50.76,7.05Z"/></g><path class="cls-5" d="M0,54.36V69.91c0,3.94,11.88,7.14,26.52,7.14S53,73.86,53,69.91V54.36C48.58,57.11,38.39,59,26.52,59S4.47,57.11,0,54.36Z"/><path class="cls-5" d="M53,30.39V7.14c0,3.94-11.88,7.14-26.52,7.14S0,11.09,0,7.14V30.39c4.47,2.75,14.66,4.67,26.52,4.67S48.58,33.14,53,30.39Z"/><g class="cls-6"><path class="cls-5" d="M0,54.36V69.91c0,3.94,11.88,7.14,26.52,7.14S53,73.85,53,69.91V54.36C48.58,57.11,38.39,59,26.52,59S4.47,57.11,0,54.36Z"/></g><g class="cls-6"><path class="cls-5" d="M53,30.39V7.14c0,3.94-11.88,7.14-26.52,7.14S0,11.08,0,7.14V30.39c4.47,2.75,14.66,4.67,26.52,4.67S48.58,33.14,53,30.39Z"/></g><path class="cls-5" d="M53,46V30.39c-4.47,2.75-14.66,4.67-26.52,4.67S4.47,33.14,0,30.39v24C4.47,57.11,14.66,59,26.52,59S48.58,57.11,53,54.36V46Z"/><g class="cls-4"><path class="cls-5" d="M26.71,77C41.27,77,53,73.84,53,69.91V54.36C48.6,57.09,38.49,59,26.71,59Z"/></g><g class="cls-4"><path class="cls-5" d="M53,7.14c0,3.93-11.78,7.11-26.34,7.14V35.06C38.49,35,48.6,33.13,53,30.39Z"/></g><g class="cls-4"><path class="cls-5" d="M53,54.36v-24C48.6,33.13,38.49,35,26.71,35.06V59C38.49,59,48.6,57.09,53,54.36Z"/></g><path class="cls-5" d="M26.71,59h-.19C14.66,59,4.47,57.11,0,54.36H0C4.47,57.11,14.66,59,26.52,59Z"/><path class="cls-5" d="M26.71,59C38.49,59,48.6,57.1,53,54.36h0C48.6,57.09,38.49,59,26.71,59Z"/><polygon class="cls-7" points="80.29 31.56 59.44 31.56 59.44 38.69 59.44 65.63 75.83 65.63 77.69 68.84 82.06 76.41 82.91 74.94 86.43 68.84 88.29 65.63 104.69 65.63 104.69 31.56 80.29 31.56"/><g class="cls-4"><polygon class="cls-7" points="82.06 76.41 82.91 74.94 86.43 68.84 88.29 65.63 104.69 65.63 104.69 31.56 82.06 31.56 82.06 76.41"/></g><path class="cls-3" d="M89.59,58.91a1.61,1.61,0,0,1-1.14-.47L73,43a1.61,1.61,0,1,1,2.28-2.28L90.73,56.16a1.61,1.61,0,0,1-1.14,2.75Z"/><path class="cls-3" d="M74.14,58.91A1.61,1.61,0,0,1,73,56.16L88.45,40.71A1.61,1.61,0,1,1,90.73,43L75.28,58.44A1.61,1.61,0,0,1,74.14,58.91Z"/></g></g></g></svg>