<svg xmlns="http://www.w3.org/2000/svg" viewBox="0 0 93.69 99.91"><defs><style>.cls-1{isolation:isolate;}.cls-2{fill:#3f4d66;}.cls-3,.cls-6{opacity:0.2;}.cls-3{mix-blend-mode:multiply;}.cls-4{fill:#ff5642;}.cls-5{fill:#e3e3e3;}.cls-6{mix-blend-mode:screen;}.cls-7{fill:#40cde0;}</style></defs><title>Asset 19</title><g class="cls-1"><g id="Layer_2" data-name="Layer 2"><g id="Layer_1-2" data-name="Layer 1"><path class="cls-2" d="M0,93.77a6.44,6.44,0,0,0,6.7,6.14H68.95a6.44,6.44,0,0,0,6.7-6.14v-6H0Z"/><path class="cls-2" d="M68.95,0H6.7A6.44,6.44,0,0,0,0,6.14v5.91H75.65V6.14A6.44,6.44,0,0,0,68.95,0Z"/><g class="cls-3"><path class="cls-2" d="M68.95,99.91a6.44,6.44,0,0,0,6.7-6.14v-6H37.8V99.91Z"/></g><g class="cls-3"><path class="cls-2" d="M75.65,6.14A6.44,6.44,0,0,0,68.95,0H37.8V12.05H75.65Z"/></g><rect class="cls-4" y="12.05" width="75.65" height="75.75"/><polygon class="cls-4" points="75.65 87.81 75.65 12.05 0 12.05 75.65 87.81"/><path class="cls-5" d="M43.57,7.54H34.72a1.51,1.51,0,0,1,0-3h8.84a1.51,1.51,0,1,1,0,3Z"/><path class="cls-5" d="M42.18,93.86h0a2.07,2.07,0,0,1-2.07,2.07H35.54a2.07,2.07,0,0,1-2.07-2.07h0a2.07,2.07,0,0,1,2.07-2.07H40.1A2.07,2.07,0,0,1,42.18,93.86Z"/><g class="cls-6"><path class="cls-5" d="M18.55,53.93a1.51,1.51,0,0,1-1-2.63l5.06-4.64a1.51,1.51,0,1,1,2,2.23l-5.06,4.64A1.51,1.51,0,0,1,18.55,53.93Z"/></g><g class="cls-6"><path class="cls-5" d="M53.09,39.22a1.51,1.51,0,0,1-1-2.63L57.12,32a1.51,1.51,0,0,1,2,2.23l-5.06,4.64A1.51,1.51,0,0,1,53.09,39.22Z"/></g><g class="cls-6"><path class="cls-5" d="M34.09,71.79a1.51,1.51,0,0,1-1-2.63l5.06-4.64a1.51,1.51,0,0,1,2,2.23l-5.06,4.64A1.51,1.51,0,0,1,34.09,71.79Z"/></g><rect class="cls-2" y="12.05" width="1.97" height="75.75"/><rect class="cls-2" x="73.68" y="12.05" width="1.97" height="75.75"/><g class="cls-3"><rect class="cls-2" x="73.68" y="12.05" width="1.97" height="75.75"/></g><path class="cls-5" d="M49.92,31.18a9.44,9.44,0,0,0-9.44-9.44H6.06V71H40.48a9.43,9.43,0,0,1,9.35,8.2h.09Z"/><path class="cls-7" d="M40.48,71H6.06v8.2H49.83A9.43,9.43,0,0,0,40.48,71Z"/><path class="cls-5" d="M76.55,21.74H59.23a9.44,9.44,0,0,0-9.44,9.44v48h.09A9.43,9.43,0,0,1,59.23,71H93.65V21.74Z"/><g class="cls-3"><path class="cls-5" d="M76.6,21.74H59.27a9.44,9.44,0,0,0-9.44,9.44v48h.09A9.43,9.43,0,0,1,59.27,71H93.69V21.74Z"/></g><path class="cls-7" d="M76.55,71H59.23a9.43,9.43,0,0,0-9.35,8.2H93.65V71Z"/><g class="cls-3"><path class="cls-7" d="M76.55,71H59.23a9.43,9.43,0,0,0-9.35,8.2H93.65V71Z"/></g><path class="cls-2" d="M37.78,35H17.28a1.5,1.5,0,0,1,0-3h20.5a1.5,1.5,0,0,1,0,3Z"/><path class="cls-2" d="M37.78,44H17.28a1.5,1.5,0,0,1,0-3h20.5a1.5,1.5,0,0,1,0,3Z"/><path class="cls-2" d="M37.78,52.93H17.28a1.5,1.5,0,0,1,0-3h20.5a1.5,1.5,0,0,1,0,3Z"/><path class="cls-2" d="M37.78,61.88H17.28a1.5,1.5,0,0,1,0-3h20.5a1.5,1.5,0,0,1,0,3Z"/><path class="cls-2" d="M82,35H61.51a1.5,1.5,0,0,1,0-3H82a1.5,1.5,0,0,1,0,3Z"/><path class="cls-2" d="M82,44H61.51a1.5,1.5,0,0,1,0-3H82a1.5,1.5,0,0,1,0,3Z"/><path class="cls-2" d="M82,52.93H61.51a1.5,1.5,0,0,1,0-3H82a1.5,1.5,0,0,1,0,3Z"/><path class="cls-2" d="M82,61.88H61.51a1.5,1.5,0,0,1,0-3H82a1.5,1.5,0,0,1,0,3Z"/></g></g></g></svg>