<svg xmlns="http://www.w3.org/2000/svg" viewBox="0 0 103.03 102.01"><defs><style>.cls-1{isolation:isolate;}.cls-2{fill:#ff5642;}.cls-3{fill:#fae480;}.cls-4{fill:#e3e3e3;}.cls-5{opacity:0.2;mix-blend-mode:multiply;}</style></defs><title>Asset 11</title><g class="cls-1"><g id="Layer_2" data-name="Layer 2"><g id="Layer_1-2" data-name="Layer 1"><path class="cls-2" d="M41.45,36.86A52.63,52.63,0,0,1,43.88,24c-.46,4.87,4.43,7.43,6.17,9.86C53,30.93,56,23.6,56,16c0,0,6.42,8.1,5.09,17.34,2.08-1,8.36-2.39,10.33-5.05a65.59,65.59,0,0,1-4.25,12.2h6.44L76,39.66c.16-.26.31-.53.46-.8,6.16-11.33-.14-24.13-.14-24.13A15.12,15.12,0,0,1,68,23.41C66.21,3.05,49.31,0,49.31,0c0,9.31-3.44,15.83-6.78,18.49C41.45,19,34.1,10.17,31.18,4.92c0,0-4.12,16-1.63,28.56a24.24,24.24,0,0,0,2.62,7H42.1A10.16,10.16,0,0,1,41.45,36.86Z"/><path class="cls-3" d="M71.44,28.25c-2,2.66-8.25,4.07-10.33,5.05C62.44,24.06,56,16,56,16c0,7.64-3,15-6,17.89-1.74-2.43-6.63-5-6.17-9.86a52.63,52.63,0,0,0-2.43,12.87,10.16,10.16,0,0,0,.64,3.59h25.1A65.59,65.59,0,0,0,71.44,28.25Z"/><path class="cls-4" d="M101.53,39H14.31L14,39H1.5C.67,39,0,39.44,0,40V50.18H0V70.48H0V90.77H0v10.15c0,.6.67,1.08,1.5,1.08h100c.83,0,1.5-.48,1.5-1.08V40.06C103,39.46,102.36,39,101.53,39Z"/><polygon class="cls-2" points="76.52 89.71 65.52 89.71 65.52 81.72 76.52 81.72 87.52 81.72 87.52 89.71 76.52 89.71"/><polygon class="cls-2" points="51.52 89.71 40.51 89.71 40.51 81.72 51.52 81.72 62.52 81.72 62.52 89.71 51.52 89.71"/><polygon class="cls-2" points="26.51 89.71 15.5 89.71 15.5 81.72 26.51 81.72 37.51 81.72 37.51 89.71 26.51 89.71"/><polygon class="cls-2" points="39.01 51.28 50.02 51.28 50.02 59.27 39.01 59.27 28.01 59.27 28.01 51.28 39.01 51.28"/><polygon class="cls-2" points="64.02 51.28 75.02 51.28 75.02 59.27 64.02 59.27 53.02 59.27 53.02 51.28 64.02 51.28"/><polygon class="cls-2" points="89.02 51.28 100.03 51.28 100.03 59.27 89.02 59.27 78.02 59.27 78.02 51.28 89.02 51.28"/><rect class="cls-2" x="90.52" y="61.43" width="9.5" height="7.99"/><polygon class="cls-2" points="100.03 79.57 89.02 79.57 78.02 79.57 78.02 71.58 89.02 71.58 100.03 71.58 100.03 79.57"/><polygon class="cls-2" points="64.02 79.57 53.02 79.57 53.02 71.58 64.02 71.58 75.02 71.58 75.02 79.57 64.02 79.57"/><polygon class="cls-2" points="39.01 79.57 28.01 79.57 28.01 71.58 39.01 71.58 50.02 71.58 50.02 79.57 39.01 79.57"/><path class="cls-2" d="M14.31,79.57l-.3,0H3v-8H25v8Z"/><rect class="cls-2" x="3" y="81.72" width="9.5" height="7.97"/><rect class="cls-2" x="3" y="61.43" width="9.5" height="7.97"/><polygon class="cls-2" points="26.51 61.43 37.51 61.43 37.51 69.42 26.51 69.42 15.5 69.42 15.5 61.43 26.51 61.43"/><polygon class="cls-2" points="51.52 61.43 62.52 61.43 62.52 69.42 51.52 69.42 40.51 69.42 40.51 61.43 51.52 61.43"/><polygon class="cls-2" points="76.52 61.43 87.52 61.43 87.52 69.42 76.52 69.42 65.52 69.42 65.52 61.43 76.52 61.43"/><path class="cls-2" d="M25,59.27H14.31l-.3,0H3v-8H25Z"/><rect class="cls-2" x="90.52" y="81.72" width="9.5" height="7.99"/><rect class="cls-2" x="90.52" y="41.14" width="9.5" height="7.99"/><polygon class="cls-2" points="87.52 49.13 76.52 49.13 65.52 49.13 65.52 41.14 87.52 41.14 87.52 49.13"/><polygon class="cls-2" points="62.52 49.13 51.52 49.13 40.51 49.13 40.51 41.14 62.52 41.14 62.52 49.13"/><polygon class="cls-2" points="37.51 49.13 26.51 49.13 15.5 49.13 15.5 41.14 37.51 41.14 37.51 49.13"/><rect class="cls-2" x="3" y="41.12" width="9.5" height="7.99"/><polygon class="cls-2" points="3 91.87 14 91.87 25.01 91.87 25.01 99.86 3 99.86 3 91.87"/><polygon class="cls-2" points="28.01 91.87 39.01 91.87 50.02 91.87 50.02 99.86 28.01 99.86 28.01 91.87"/><polygon class="cls-2" points="53.02 91.87 64.02 91.87 75.02 91.87 75.02 99.86 53.02 99.86 53.02 91.87"/><polygon class="cls-2" points="100.03 99.86 78.02 99.86 78.02 91.87 89.02 91.87 100.03 91.87 100.03 99.86"/><g class="cls-5"><polygon class="cls-2" points="65.52 81.75 76.52 81.75 87.52 81.75 87.52 89.73 65.52 81.75"/></g><g class="cls-5"><polygon class="cls-2" points="40.51 81.75 51.52 81.75 62.52 81.75 62.52 89.73 40.51 81.75"/></g><g class="cls-5"><polygon class="cls-2" points="15.5 81.75 26.51 81.75 37.51 81.75 37.51 89.73 15.5 81.75"/></g><g class="cls-5"><polygon class="cls-2" points="39.01 51.31 50.02 51.31 50.02 59.3 39.01 59.3 28.01 51.31 39.01 51.31"/></g><g class="cls-5"><polygon class="cls-2" points="64.02 51.31 75.02 51.31 75.02 59.3 53.02 51.31 64.02 51.31"/></g><g class="cls-5"><polygon class="cls-2" points="89.02 51.31 100.03 51.31 100.03 59.3 78.02 51.31 89.02 51.31"/></g><g class="cls-5"><polygon class="cls-2" points="100.03 69.44 90.52 61.45 100.03 61.45 100.03 69.44"/></g><g class="cls-5"><polygon class="cls-2" points="100.03 79.59 78.02 71.6 89.02 71.6 100.03 71.6 100.03 79.59"/></g><g class="cls-5"><polygon class="cls-2" points="53.02 71.6 64.02 71.6 75.02 71.6 75.02 79.59 53.02 71.6"/></g><g class="cls-5"><polygon class="cls-2" points="28.01 71.6 39.01 71.6 50.02 71.6 50.02 79.59 28.01 71.6"/></g><g class="cls-5"><polygon class="cls-2" points="3 71.6 14 71.6 25.01 71.6 25.01 79.59 3 71.6"/></g><g class="cls-5"><polygon class="cls-2" points="3 81.75 12.5 81.75 12.5 89.71 3 81.75"/></g><g class="cls-5"><polygon class="cls-2" points="3 61.45 12.5 61.45 12.5 69.42 3 61.45"/></g><g class="cls-5"><polygon class="cls-2" points="26.51 61.45 37.51 61.45 37.51 69.44 15.5 61.45 26.51 61.45"/></g><g class="cls-5"><polygon class="cls-2" points="51.52 61.45 62.52 61.45 62.52 69.44 40.51 61.45 51.52 61.45"/></g><g class="cls-5"><polygon class="cls-2" points="76.52 61.45 87.52 61.45 87.52 69.44 65.52 61.45 76.52 61.45"/></g><g class="cls-5"><polygon class="cls-2" points="25.01 59.3 3 51.31 14 51.31 25.01 51.31 25.01 59.3"/></g><g class="cls-5"><polygon class="cls-2" points="90.52 81.75 100.03 81.75 100.03 89.73 90.52 81.75"/></g><g class="cls-5"><polygon class="cls-2" points="100.03 49.15 90.52 41.16 100.03 41.16 100.03 49.15"/></g><g class="cls-5"><polygon class="cls-2" points="87.52 49.15 76.52 49.15 65.52 41.16 87.52 41.16 87.52 49.15"/></g><g class="cls-5"><polygon class="cls-2" points="62.52 49.15 51.52 49.15 40.51 41.16 62.52 41.16 62.52 49.15"/></g><g class="cls-5"><polygon class="cls-2" points="37.51 49.15 26.51 49.15 15.5 41.16 37.51 41.16 37.51 49.15"/></g><g class="cls-5"><polygon class="cls-2" points="3 41.14 12.5 41.14 12.5 49.13 3 41.14"/></g><g class="cls-5"><polygon class="cls-2" points="3 91.89 14 91.89 25.01 91.89 25.01 99.88 3 91.89"/></g><g class="cls-5"><polygon class="cls-2" points="28.01 91.89 39.01 91.89 50.02 91.89 50.02 99.88 28.01 91.89"/></g><g class="cls-5"><polygon class="cls-2" points="53.02 91.89 64.02 91.89 75.02 91.89 75.02 99.88 53.02 91.89"/></g><g class="cls-5"><polygon class="cls-2" points="100.03 99.88 78.02 91.89 89.02 91.89 100.03 91.89 100.03 99.88"/></g><g class="cls-5"><path class="cls-2" d="M76.34,14.74A15.12,15.12,0,0,1,68,23.41C66.21,3.05,49.31,0,49.31,0s0,.18,0,.27A46.41,46.41,0,0,1,56,16.15c0-.06,0-.12,0-.19s6.42,8.1,5.09,17.34c2.08-1,8.36-2.39,10.33-5.05a65.6,65.6,0,0,1-4.25,12.2h6.44L76,39.66c.16-.26.31-.53.46-.8C82.64,27.53,76.34,14.74,76.34,14.74Z"/></g><g class="cls-5"><path class="cls-3" d="M61.1,33.31C62.44,24.06,56,16,56,16s0,.12,0,.19a57.14,57.14,0,0,1,.07,24.3H67.19a65.6,65.6,0,0,0,4.25-12.2C69.47,30.92,63.18,32.32,61.1,33.31Z"/></g></g></g></g></svg>