<svg xmlns="http://www.w3.org/2000/svg" viewBox="0 0 103.32 103.32"><defs><style>.cls-1{isolation:isolate;}.cls-2{fill:#ff5642;}.cls-3{opacity:0.2;mix-blend-mode:multiply;}.cls-4{fill:#e3e3e3;}.cls-5{fill:#3f4d66;}</style></defs><title>Asset 15</title><g class="cls-1"><g id="Layer_2" data-name="Layer 2"><g id="Layer_1-2" data-name="Layer 1"><path class="cls-2" d="M50.43,0a50.42,50.42,0,1,0,50.43,50.43A50.43,50.43,0,0,0,50.43,0Z"/><g class="cls-3"><path class="cls-2" d="M50.43,0V100.86A50.43,50.43,0,1,0,50.43,0Z"/></g><path class="cls-4" d="M50.43,8.22A42.2,42.2,0,1,0,92.64,50.43,42.21,42.21,0,0,0,50.43,8.22Z"/><g class="cls-3"><path class="cls-4" d="M50.43,8.22V92.64a42.21,42.21,0,1,0,0-84.41Z"/></g><path class="cls-2" d="M50.43,16.37A34.05,34.05,0,1,0,84.49,50.43,34.06,34.06,0,0,0,50.43,16.37Z"/><g class="cls-3"><path class="cls-2" d="M50.43,16.37V84.49a34.06,34.06,0,1,0,0-68.11Z"/></g><path class="cls-4" d="M50.41,24.4a26,26,0,1,0,26,26A26,26,0,0,0,50.41,24.4Z"/><g class="cls-3"><path class="cls-4" d="M50.41,24.4v52a26,26,0,1,0,0-52Z"/></g><path class="cls-2" d="M48.87,65.52A1.55,1.55,0,0,1,50.42,64h0A1.55,1.55,0,0,1,52,65.52h0a1.56,1.56,0,0,1-1.55,1.55h0A1.56,1.56,0,0,1,48.87,65.52Zm-10.2-3.3a1.56,1.56,0,0,1,0-2.2h0a1.56,1.56,0,0,1,2.19,0h0a1.55,1.55,0,0,1,0,2.19h0a1.52,1.52,0,0,1-1.11.46h0A1.53,1.53,0,0,1,38.67,62.22Zm21.32,0A1.54,1.54,0,0,1,60,60h0a1.55,1.55,0,0,1,2.19,0h0a1.54,1.54,0,0,1,0,2.19h0a1.52,1.52,0,0,1-1.1.46h0A1.52,1.52,0,0,1,60,62.19ZM33.77,50.46a1.55,1.55,0,0,1,1.55-1.55h0a1.55,1.55,0,0,1,1.55,1.55h0A1.55,1.55,0,0,1,35.32,52h0A1.55,1.55,0,0,1,33.77,50.46Zm30.16,0v-.07h0a1.56,1.56,0,0,1,1.55-1.56h0A1.55,1.55,0,0,1,67,50.36h0v0h0v0h0A1.55,1.55,0,0,1,65.49,52h0A1.56,1.56,0,0,1,63.94,50.45ZM38.62,40.89a1.54,1.54,0,0,1,0-2.19h0a1.54,1.54,0,0,1,2.19,0h0a1.55,1.55,0,0,1,0,2.19h0a1.59,1.59,0,0,1-1.11.46h0A1.54,1.54,0,0,1,38.62,40.89Zm21.32-.06a1.55,1.55,0,0,1,0-2.19h0a1.55,1.55,0,0,1,2.19,0h0a1.54,1.54,0,0,1,0,2.19h0a1.53,1.53,0,0,1-1.1.47h0A1.54,1.54,0,0,1,59.94,40.83ZM48.81,35.35a1.57,1.57,0,0,1,1.55-1.56h0a1.55,1.55,0,0,1,1.55,1.55h0a1.55,1.55,0,0,1-1.54,1.55h0A1.54,1.54,0,0,1,48.81,35.35Z"/><path class="cls-5" d="M102.86,100.67,92.77,90.58h8.78a1.55,1.55,0,0,0,0-3.1H89.67L55.59,53.4h5.25l-3.16-3.16H50.24v7.44l3.16,3.16V55.59l34,34v12.07a1.55,1.55,0,1,0,3.1,0v-9l10.18,10.18a1.55,1.55,0,0,0,2.19-2.19Z"/></g></g></g></svg>