<svg xmlns="http://www.w3.org/2000/svg" viewBox="0 0 103.75 100.16"><defs><style>.cls-1{isolation:isolate;}.cls-2{fill:#e3e3e3;}.cls-3,.cls-5{opacity:0.2;}.cls-3{mix-blend-mode:multiply;}.cls-4{fill:#3f4d66;}.cls-5{mix-blend-mode:screen;}.cls-6{fill:#40cde0;}.cls-7{fill:#fae480;}.cls-8{fill:#feffff;}</style></defs><title>Asset 3</title><g class="cls-1"><g id="Layer_2" data-name="Layer 2"><g id="Layer_1-2" data-name="Layer 1"><rect class="cls-2" x="13.09" y="24.29" width="77.8" height="67.47"/><g class="cls-3"><rect class="cls-2" x="51.88" y="24.29" width="39.01" height="67.47"/></g><path class="cls-4" d="M94.07,17.46H84.18v6.83h6.59V91.76h6.6V20.87A3.36,3.36,0,0,0,94.07,17.46Z"/><path class="cls-4" d="M19.79,17.46H9.68a3.36,3.36,0,0,0-3.3,3.41V91.76H13V24.29h6.81V17.46Z"/><path class="cls-4" d="M1,91.76H102.76a1,1,0,0,1,1,1v2.37a5,5,0,0,1-5,5H5a5,5,0,0,1-5-5V92.76a1,1,0,0,1,1-1Z"/><g class="cls-5"><path class="cls-4" d="M1,91.76H102.76a1,1,0,0,1,1,1v2.37a5,5,0,0,1-5,5H5a5,5,0,0,1-5-5V92.76a1,1,0,0,1,1-1Z"/></g><path class="cls-6" d="M19.83,0V38.74c0,.09,0,.18,0,.27.1,13.34,7.3,25.63,19.31,32.93L52,79.76,64.9,71.94c12-7.3,19.22-19.6,19.31-32.95,0-.09,0-.17,0-.26V0Z"/><g class="cls-3"><path class="cls-6" d="M52,79.76,64.9,71.94c12-7.3,19.22-19.6,19.31-32.95,0-.09,0-.17,0-.26V0H51.92Z"/></g><path class="cls-7" d="M51.92,17.58A16.61,16.61,0,1,0,68.53,34.19,16.61,16.61,0,0,0,51.92,17.58Z"/><g class="cls-3"><path class="cls-7" d="M51.92,17.58V50.8a16.61,16.61,0,0,0,0-33.22Z"/></g><path class="cls-4" d="M51.19,45.5h-.06a1.48,1.48,0,0,1-1.33-1l-4.1-11.94a1.48,1.48,0,0,1,2.79-1L51.36,40l6.54-14.84a1.48,1.48,0,0,1,2.7,1.19L52.54,44.62A1.48,1.48,0,0,1,51.19,45.5Z"/><path class="cls-8" d="M52,56.58A1.59,1.59,0,0,1,50.41,55h0A1.58,1.58,0,0,1,52,53.42h0A1.59,1.59,0,0,1,53.56,55h0A1.58,1.58,0,0,1,52,56.58Zm11-4.6a1.57,1.57,0,0,1,.35-2.2h0a1.58,1.58,0,0,1,2.21.35h0a1.59,1.59,0,0,1-.36,2.21h0a1.55,1.55,0,0,1-.91.29h0A1.58,1.58,0,0,1,62.94,52Zm-24.11.29a1.57,1.57,0,0,1-.35-2.2h0a1.58,1.58,0,0,1,2.21-.35h0a1.57,1.57,0,0,1,.34,2.2h0a1.55,1.55,0,0,1-1.27.65h0A1.52,1.52,0,0,1,38.84,52.27Zm32.48-10.1a1.58,1.58,0,0,1-1-2h0a1.58,1.58,0,0,1,2-1h0a1.58,1.58,0,0,1,1,2h0a1.59,1.59,0,0,1-1.5,1.08h0A1.55,1.55,0,0,1,71.32,42.17Zm-40.6-1.09h0a1.58,1.58,0,0,1,1-2h0a1.58,1.58,0,0,1,2,1h0a1.58,1.58,0,0,1-1,2h0a1.55,1.55,0,0,1-.48.07h0A1.59,1.59,0,0,1,30.72,41.08ZM70.34,28.29a1.57,1.57,0,0,1,1-2h0a1.58,1.58,0,0,1,2,1h0a1.57,1.57,0,0,1-1,2h0a1.53,1.53,0,0,1-.48.07h0A1.58,1.58,0,0,1,70.34,28.29Zm-38.6.93a1.57,1.57,0,0,1-1-2h0a1.58,1.58,0,0,1,2-1h0a1.57,1.57,0,0,1,1,2h0a1.57,1.57,0,0,1-1.5,1.09h0A1.54,1.54,0,0,1,31.75,29.23ZM63.39,18.67A1.58,1.58,0,0,1,63,16.46h0a1.57,1.57,0,0,1,2.21-.34h0a1.57,1.57,0,0,1,.34,2.2h0a1.59,1.59,0,0,1-1.27.65h0A1.63,1.63,0,0,1,63.39,18.67Zm-24.86-.4a1.58,1.58,0,0,1,.35-2.21h0a1.59,1.59,0,0,1,2.21.36h0a1.57,1.57,0,0,1-.35,2.2h0a1.55,1.55,0,0,1-.92.3h0A1.58,1.58,0,0,1,38.52,18.27ZM52.1,14.95H52a1.57,1.57,0,0,1-1.58-1.58h0A1.57,1.57,0,0,1,52,11.79h.08a1.59,1.59,0,0,1,1.58,1.59h0a1.57,1.57,0,0,1-1.58,1.57h0Z"/></g></g></g></svg>