<svg xmlns="http://www.w3.org/2000/svg" viewBox="0 0 106.07 100.91"><defs><style>.cls-1{isolation:isolate;}.cls-2{fill:#ff5642;}.cls-3,.cls-4{opacity:0.2;}.cls-3{mix-blend-mode:multiply;}.cls-4{mix-blend-mode:screen;}.cls-5{fill:#feffff;}.cls-6{fill:#fae480;}</style></defs><title>Asset 12</title><g class="cls-1"><g id="Layer_2" data-name="Layer 2"><g id="Layer_1-2" data-name="Layer 1"><path class="cls-2" d="M64.82,18.39H48.07C49.47,12.42,43.19,0,43.19,0S30.73,5.82,28.92,11.6a12,12,0,0,0,.48,8.47,28.36,28.36,0,0,0-4.46,2.11,31.71,31.71,0,0,0-12.62,14,34.62,34.62,0,0,0-2.16,5.92H0V60.8H10.26c2.63,9.56,9.1,17.28,17.45,21v19.13H43.17V84.16h16.4v16.75H75V82.19c11.48-4.59,19.69-16.7,19.69-30.92C94.72,33.11,81.33,18.39,64.82,18.39Z"/><g class="cls-3"><path class="cls-2" d="M64.82,18.39H50.71V84.16h8.87v16.75H75V82.19c11.48-4.59,19.69-16.7,19.69-30.92C94.72,33.11,81.33,18.39,64.82,18.39Z"/></g><path class="cls-2" d="M24.95,22.18a11.27,11.27,0,0,0-2.35-4.29C18.72,13.51,5.19,14.1,5.19,14.1S4.3,29,8.18,33.34a9.92,9.92,0,0,0,4.15,2.82A31.71,31.71,0,0,1,24.95,22.18Z"/><g class="cls-4"><path class="cls-2" d="M24.95,22.18a11.27,11.27,0,0,0-2.35-4.29C18.72,13.51,5.19,14.1,5.19,14.1S4.3,29,8.18,33.34a9.92,9.92,0,0,0,4.15,2.82A31.71,31.71,0,0,1,24.95,22.18Z"/></g><path class="cls-2" d="M95.65,49.22a10.92,10.92,0,0,1-6.45-2.11A1.55,1.55,0,0,1,91,44.61a7.9,7.9,0,0,0,11-1.74,4.92,4.92,0,0,0,.83-3.51,4.3,4.3,0,0,0-2.56-2.59A1.55,1.55,0,1,1,101.68,34a7.18,7.18,0,0,1,4.22,4.63,8,8,0,0,1-1.33,6.07,10.93,10.93,0,0,1-7.18,4.39A11.13,11.13,0,0,1,95.65,49.22Z"/><path class="cls-5" d="M20.43,36.16A1.54,1.54,0,0,1,22,34.62h0a1.54,1.54,0,0,1,1.55,1.55h0A1.55,1.55,0,0,1,22,37.71h0A1.55,1.55,0,0,1,20.43,36.16Z"/><path class="cls-6" d="M50.71,28.13A23.66,23.66,0,1,0,74.37,51.8,23.66,23.66,0,0,0,50.71,28.13Z"/><g class="cls-3"><path class="cls-6" d="M50.71,28.13V75.46a23.66,23.66,0,1,0,0-47.32Z"/></g><path class="cls-2" d="M52.12,64.29H49.29a5.47,5.47,0,0,1-5.46-5.46,1.48,1.48,0,1,1,3,0,2.51,2.51,0,0,0,2.51,2.51h2.82a2.51,2.51,0,0,0,2.51-2.51V56a2.51,2.51,0,0,0-2.51-2.51H49.29A5.47,5.47,0,0,1,43.83,48V45.2a5.47,5.47,0,0,1,5.46-5.46h2.82a5.47,5.47,0,0,1,5.46,5.46v.12a1.48,1.48,0,1,1-3,0V45.2a2.51,2.51,0,0,0-2.51-2.51H49.29a2.51,2.51,0,0,0-2.51,2.51V48a2.51,2.51,0,0,0,2.51,2.51h2.82A5.47,5.47,0,0,1,57.58,56v2.83A5.47,5.47,0,0,1,52.12,64.29Z"/><path class="cls-2" d="M50.71,42.25a1.48,1.48,0,0,1-1.48-1.48V36.52a1.48,1.48,0,0,1,3,0v4.26A1.48,1.48,0,0,1,50.71,42.25Z"/><path class="cls-2" d="M50.71,68.55a1.48,1.48,0,0,1-1.48-1.48V62.81a1.48,1.48,0,0,1,3,0v4.26A1.48,1.48,0,0,1,50.71,68.55Z"/></g></g></g></svg>