<svg xmlns="http://www.w3.org/2000/svg" viewBox="0 0 103.11 103.78"><defs><style>.cls-1{isolation:isolate;}.cls-2{fill:#40cde0;}.cls-3{fill:#3f4d66;}.cls-4{opacity:0.2;mix-blend-mode:multiply;}.cls-5{fill:#ff5642;}.cls-6{fill:#feffff;}</style></defs><title>Asset 4</title><g class="cls-1"><g id="Layer_2" data-name="Layer 2"><g id="Layer_1-2" data-name="Layer 1"><rect class="cls-2" x="81.42" y="95.93" width="10.83" height="7.85"/><polygon class="cls-3" points="103.11 27.45 103.11 0 0 0 0 27.45 9.51 27.45 93.6 27.45 103.11 27.45"/><polygon class="cls-3" points="0 68.48 0 95.93 103.11 95.93 103.11 68.48 93.6 68.48 9.51 68.48 0 68.48"/><rect class="cls-2" x="12.32" y="61.69" width="78.46" height="6.79"/><rect class="cls-2" x="12.32" y="27.45" width="78.46" height="6.79"/><polygon class="cls-3" points="93.6 34.24 9.51 34.24 0 34.24 0 61.69 9.51 61.69 93.6 61.69 103.11 61.69 103.11 54.29 103.11 41.45 103.11 34.24 93.6 34.24"/><g class="cls-4"><polygon class="cls-3" points="103.11 27.45 103.11 0 51.56 0 51.56 27.45 56.31 27.45 98.36 27.45 103.11 27.45"/></g><g class="cls-4"><polygon class="cls-3" points="51.56 68.48 51.56 95.93 103.11 95.93 103.11 68.48 98.36 68.48 56.31 68.48 51.56 68.48"/></g><g class="cls-4"><rect class="cls-2" x="51.56" y="61.69" width="39.23" height="6.79"/></g><g class="cls-4"><rect class="cls-2" x="51.56" y="27.45" width="39.23" height="6.79"/></g><g class="cls-4"><polygon class="cls-3" points="98.36 34.24 56.31 34.24 51.56 34.24 51.56 61.69 56.31 61.69 98.36 61.69 103.11 61.69 103.11 54.29 103.11 41.45 103.11 34.24 98.36 34.24"/></g><rect class="cls-2" x="10.86" y="95.93" width="10.83" height="7.85"/><g class="cls-4"><rect class="cls-2" x="16.28" y="95.93" width="5.42" height="7.85"/></g><g class="cls-4"><rect class="cls-2" x="86.84" y="95.93" width="5.42" height="7.85"/></g><path class="cls-5" d="M17.27,7.51a5.54,5.54,0,1,0,5.54,5.54A5.54,5.54,0,0,0,17.27,7.51Z"/><g class="cls-4"><path class="cls-5" d="M17.27,7.51V18.6a5.54,5.54,0,0,0,0-11.08Z"/></g><path class="cls-5" d="M17.27,42.43A5.54,5.54,0,1,0,22.81,48,5.54,5.54,0,0,0,17.27,42.43Z"/><g class="cls-4"><path class="cls-5" d="M17.27,42.43V53.51a5.54,5.54,0,1,0,0-11.08Z"/></g><path class="cls-5" d="M17.27,77.34a5.54,5.54,0,1,0,5.54,5.54A5.54,5.54,0,0,0,17.27,77.34Z"/><g class="cls-4"><path class="cls-5" d="M17.27,77.34V88.42a5.54,5.54,0,0,0,0-11.08Z"/></g><path class="cls-6" d="M58,18.37a1.55,1.55,0,0,1-1.55-1.55V7.39a1.55,1.55,0,1,1,3.1,0v9.43A1.55,1.55,0,0,1,58,18.37Z"/><path class="cls-6" d="M68.93,18.37a1.55,1.55,0,0,1-1.55-1.55V7.39a1.55,1.55,0,1,1,3.1,0v9.43A1.55,1.55,0,0,1,68.93,18.37Z"/><path class="cls-6" d="M79.86,18.37a1.55,1.55,0,0,1-1.55-1.55V7.39a1.55,1.55,0,1,1,3.1,0v9.43A1.55,1.55,0,0,1,79.86,18.37Z"/><path class="cls-6" d="M90.79,18.37a1.55,1.55,0,0,1-1.55-1.55V7.39a1.55,1.55,0,1,1,3.1,0v9.43A1.55,1.55,0,0,1,90.79,18.37Z"/><path class="cls-6" d="M58,52.61a1.55,1.55,0,0,1-1.55-1.55V41.63a1.55,1.55,0,1,1,3.1,0v9.43A1.55,1.55,0,0,1,58,52.61Z"/><path class="cls-6" d="M68.93,52.61a1.55,1.55,0,0,1-1.55-1.55V41.63a1.55,1.55,0,1,1,3.1,0v9.43A1.55,1.55,0,0,1,68.93,52.61Z"/><path class="cls-6" d="M79.86,52.61a1.55,1.55,0,0,1-1.55-1.55V41.63a1.55,1.55,0,1,1,3.1,0v9.43A1.55,1.55,0,0,1,79.86,52.61Z"/><path class="cls-6" d="M90.79,52.61a1.55,1.55,0,0,1-1.55-1.55V41.63a1.55,1.55,0,1,1,3.1,0v9.43A1.55,1.55,0,0,1,90.79,52.61Z"/><path class="cls-6" d="M58,86.86a1.55,1.55,0,0,1-1.55-1.55V75.87a1.55,1.55,0,1,1,3.1,0V85.3A1.55,1.55,0,0,1,58,86.86Z"/><path class="cls-6" d="M68.93,86.86a1.55,1.55,0,0,1-1.55-1.55V75.87a1.55,1.55,0,1,1,3.1,0V85.3A1.55,1.55,0,0,1,68.93,86.86Z"/><path class="cls-6" d="M79.86,86.86a1.55,1.55,0,0,1-1.55-1.55V75.87a1.55,1.55,0,1,1,3.1,0V85.3A1.55,1.55,0,0,1,79.86,86.86Z"/><path class="cls-6" d="M90.79,86.86a1.55,1.55,0,0,1-1.55-1.55V75.87a1.55,1.55,0,1,1,3.1,0V85.3A1.55,1.55,0,0,1,90.79,86.86Z"/></g></g></g></svg>