<svg xmlns="http://www.w3.org/2000/svg" viewBox="0 0 104.78 104.34"><defs><style>.cls-1{isolation:isolate;}.cls-2{fill:#ff5642;}.cls-3{opacity:0.2;}.cls-3,.cls-6{mix-blend-mode:multiply;}.cls-4{fill:#e3e3e3;}.cls-5{fill:#3f4d66;}</style></defs><title>Asset 18</title><g class="cls-1"><g id="Layer_2" data-name="Layer 2"><g id="Layer_1-2" data-name="Layer 1"><path class="cls-2" d="M100.83,101.27h0a10.49,10.49,0,0,1-14.84,0L52.45,67.73,67.29,52.89l33.54,33.54A10.49,10.49,0,0,1,100.83,101.27Z"/><g class="cls-3"><path class="cls-2" d="M100.84,101.25h0L59.71,60.45l7.58-7.58,33.54,33.54A10.49,10.49,0,0,1,100.84,101.25Z"/></g><rect class="cls-4" x="53.4" y="53.79" width="7.53" height="7.64" transform="translate(-23.99 57.3) rotate(-45)"/><polygon class="cls-4" points="52.54 47.66 26.95 22.06 21.62 27.38 47.22 52.98 50.62 49.58 52.54 47.66"/><path class="cls-5" d="M99.68,13.65l-6.6,8.4a5.36,5.36,0,0,1-4,2.21,7.93,7.93,0,0,1-6-2.56,7.93,7.93,0,0,1-2.56-6,5.4,5.4,0,0,1,2.27-4L91.13,5.1l-4-5.1L78.84,6.51A11.82,11.82,0,0,0,74,15.23a13.75,13.75,0,0,0,2.38,8.54L52.54,47.66l-1.92,1.92L47.22,53,40,60.17l-4,4L24.73,75.47a13.75,13.75,0,0,0-8.53-2.38,11.78,11.78,0,0,0-8.68,4.73L1,86.16l5.1,4,6.6-8.4a5.36,5.36,0,0,1,4-2.21,7.93,7.93,0,0,1,6,2.56h0a7.93,7.93,0,0,1,2.56,6,5.4,5.4,0,0,1-2.27,4l-8.34,6.55,4,5.1,8.28-6.51a11.82,11.82,0,0,0,4.79-8.73,13.74,13.74,0,0,0-2.38-8.54L40.58,68.79l4-4,7.18-7.18,5.33-5.33,2.67-2.67L81,28.36a13.75,13.75,0,0,0,8.53,2.38A11.78,11.78,0,0,0,98.23,26l6.55-8.34Z"/><path class="cls-4" d="M0,11.66l13.6,13.6,8,2.12,5.2-5.2L25.06,13.8,11.46.2Z"/><g class="cls-6"><polygon class="cls-4" points="59.72 60.46 62.53 57.65 57.13 52.24 54.53 54.84 59.72 60.46"/></g><g class="cls-6"><polygon class="cls-4" points="52.54 47.66 26.95 22.06 24.28 24.72 49.92 50.28 52.54 47.66"/></g><g class="cls-6"><path class="cls-4" d="M24.28,24.72l2.53-2.53L25.06,13.8,11.46.2,6,5.71Z"/></g><g class="cls-3"><path class="cls-5" d="M99.68,13.65l-6.6,8.4a5.36,5.36,0,0,1-4,2.21,7.93,7.93,0,0,1-6-2.56l-.28-.31L22.36,81.83l.31.28h0a7.93,7.93,0,0,1,2.56,6,5.4,5.4,0,0,1-2.27,4l-8.34,6.55,4,5.1,8.28-6.51a11.82,11.82,0,0,0,4.79-8.73,13.74,13.74,0,0,0-2.38-8.54L40.58,68.79l4-4,7.18-7.18,5.33-5.33,2.67-2.67L81,28.36a13.75,13.75,0,0,0,8.53,2.38A11.78,11.78,0,0,0,98.23,26l6.55-8.34Z"/></g></g></g></g></svg>